<mxfile host="app.diagrams.net" modified="2024-03-24T21:20:44.762Z" agent="Mozilla/5.0 (Windows NT 10.0; Win64; x64; rv:124.0) Gecko/20100101 Firefox/124.0" version="24.1.0" etag="93JwFQ8Z2e2eLH9PfD6a" type="github">
  <diagram name="Seite-1" id="AIMpO7CqqWgDDPRgDaYp">
    <mxGraphModel>
      <root>
        <mxCell id="0" />
        <mxCell id="1" parent="0" />
      </root>
    </mxGraphModel>
  </diagram>
</mxfile>
